<svg t="1564992205101" class="icon" viewBox="0 0 1024 1024" version="1.1" xmlns="http://www.w3.org/2000/svg" p-id="3191" width="300" height="300"><path d="M503.157072 481.272201c-132.671732 0-240.594388-107.950464-240.594388-240.622196S370.485339 0 503.157072 0s240.594388 107.950464 240.594388 240.622196S635.800996 481.272201 503.157072 481.272201zM503.157072 22.274168c-120.380618 0-218.348028 97.939602-218.348028 218.375836s97.939602 218.375836 218.348028 218.375836 218.348028-97.939602 218.348028-218.375836S623.53769 22.274168 503.157072 22.274168z" p-id="3192" fill="#161616"></path><path d="M466.033458 1023.999972c-108.451007 0-206.390609-6.701716-275.688022-18.85379-87.483813-15.349989-130.057785-38.736475-130.057785-71.466433 0-223.214419 202.636536-404.828145 451.712349-404.828145s451.712349 181.585917 451.712349 404.828145C963.712349 1007.760129 604.461436 1023.999972 466.033458 1023.999972zM512 551.125773c-236.812507 0-429.438181 171.602863-429.438181 382.553976 0 33.842276 131.698454 68.073863 383.471639 68.073863 285.810116 0 475.432531-40.988919 475.432531-68.073863C941.438181 722.728636 748.812507 551.125773 512 551.125773z" p-id="3193" fill="#161616"></path></svg>