<!-- 
    扫描 更新  白色 tangtao 
    https://www.promiselee.cn/tao
    2019-10-16 11:21:28
 -->

<svg t="1571196285757" class="icon" viewBox="0 0 1024 1024" version="1.1" xmlns="http://www.w3.org/2000/svg" p-id="5705" width="200" height="200"><path d="M511.3 808.6c-118.2 0-224.2-72-270.5-177.2h93.3c16.9 0 19.7-11.5 19.7-28.4s-2.8-30.6-19.7-30.6H167.8c-16.9 0-30.6 13.7-30.6 30.6v166.3c0 16.9 13.7 19.7 30.6 19.7 16.9 0 28.4-2.8 28.4-19.7v-93.6c58.9 114 177.9 192 315.1 192 195.8 0 354.4-158.7 354.4-354.4h-59.1c0.1 162.8-132.4 295.3-295.3 295.3zM854.9 237.6c-17 0-28.5 2.8-28.5 19.7v93.5c-58.9-114-177.9-192-315.1-192-195.7 0-354.4 158.7-354.4 354.5H216c0-162.9 132.5-295.4 295.4-295.4 118.2 0 224.2 71.9 270.6 177.2h-93.3c-16.9 0-19.7 11.5-19.7 28.4s2.8 30.6 19.7 30.6H855c16.9 0 30.6-13.7 30.6-30.6l0.1-166.3c-0.2-16.9-13.9-19.6-30.8-19.6z" fill="#ffffff" p-id="5706"></path></svg>