<!-- 
    图表  白色 tangtao 
    https://www.promiselee.cn/tao
    2019-10-11 12:28:50
 -->


<svg t="1570768077960" class="icon" viewBox="0 0 1024 1024" version="1.1" xmlns="http://www.w3.org/2000/svg" p-id="16725" width="200" height="200"><path d="M133.5 860.4v-40.9 16.2c0.8 13.8 12.2 24.7 26.2 24.7h-26.2zM180 693c16 16 41.9 16 57.9 0l164.7-164.7c16-16 16-41.9 0-57.9s-41.9-16-57.9 0L180 635.1c-16 16-16 42 0 57.9zM562.3 744.4c16 16 41.9 16 57.9 0L933 431.7c16-16 16-41.9 0-57.9s-41.9-16-57.9 0L562.3 686.5c-15.9 16-15.9 41.9 0 57.9z" fill="#FFFFFF" p-id="16726"></path><path d="M345.3 470.4c-16 16-16 41.9 0 57.9l216.3 216.3c16 16 41.9 16 57.9 0s16-41.9 0-57.9L403.3 470.4c-16-16-42-16-58 0z" fill="#FFFFFF" p-id="16727"></path><path d="M931.2 860H133.7V130.3c0-22.6-18.3-41-41-41s-41 18.3-41 41v748c2.1 34.1 29.3 61.4 63.4 63.7h816.1c22.6 0 41-18.3 41-41s-18.4-41-41-41z" fill="#FFFFFF" p-id="16728"></path></svg>
