
<!-- 
    返回图标 
    2019-8-18 22:16:25 
    https://www.promiselee.cn/tao
    -->
<svg t="1566137685450" class="icon" viewBox="0 0 1024 1024" version="1.1" xmlns="http://www.w3.org/2000/svg" p-id="2019" data-spm-anchor-id="a313x.7781069.0.i4" width="300" height="300"><path d="M478.104276 337.595469V184.66079L114.48369 442.197642l363.620586 257.597261V548.220967c145.529941 0.060409 280.456525 7.405763 394.534756 210.864063 0.001024-129.244021-21.321388-417.874222-394.534756-421.489561z" fill="#343d3e" p-id="2020"></path><path d="M447.778841 307.270034V154.334331L84.158254 411.871182 447.778841 669.468444V517.894508c145.529941 0.060409 280.456525 7.405763 394.534756 210.864063 0-129.244021-21.322412-417.874222-394.534756-421.488537z" fill="#343d3e" p-id="2021" data-spm-anchor-id="a313x.7781069.0.i2" class=""></path><path d="M283.00269 350.410162a27.283472 57.977507 55.515 1 0 95.578754-65.652623 27.283472 57.977507 55.515 1 0-95.578754 65.652623Z" fill="#343d3e" p-id="2022"></path><path d="M224.416795 445.822358a18.189323 31.830547 55.515 1 0 52.474213-36.044304 18.189323 31.830547 55.515 1 0-52.474213 36.044304Z" fill="#343d3e" p-id="2023" data-spm-anchor-id="a313x.7781069.0.i3"></path></svg>