<svg t="1565288562309" class="icon" viewBox="0 0 1024 1024" version="1.1" xmlns="http://www.w3.org/2000/svg" p-id="2278" width="300" height="300"><path d="M969.142857 146.285714H301.714286c-5.028571 0-9.142857 4.114286-9.142857 9.142857v64c0 5.028571 4.114286 9.142857 9.142857 9.142858h667.428571c5.028571 0 9.142857-4.114286 9.142857-9.142858v-64c0-5.028571-4.114286-9.142857-9.142857-9.142857z m0 324.571429H301.714286c-5.028571 0-9.142857 4.114286-9.142857 9.142857v64c0 5.028571 4.114286 9.142857 9.142857 9.142857h667.428571c5.028571 0 9.142857-4.114286 9.142857-9.142857v-64c0-5.028571-4.114286-9.142857-9.142857-9.142857z m0 324.571428H301.714286c-5.028571 0-9.142857 4.114286-9.142857 9.142858v64c0 5.028571 4.114286 9.142857 9.142857 9.142857h667.428571c5.028571 0 9.142857-4.114286 9.142857-9.142857v-64c0-5.028571-4.114286-9.142857-9.142857-9.142858zM45.714286 187.428571a64 64 0 1 0 128 0 64 64 0 1 0-128 0z m0 324.571429a64 64 0 1 0 128 0 64 64 0 1 0-128 0z m0 324.571429a64 64 0 1 0 128 0 64 64 0 1 0-128 0z" p-id="2279" fill="#ffffff"></path></svg>