
<!-- 
     删除 任务列表 tangtao
    https://www.promiselee.cn/tao
    2019-9-9 20:26:44
 -->


<svg t="1568031907785" class="icon" viewBox="0 0 1024 1024" version="1.1" xmlns="http://www.w3.org/2000/svg" p-id="1121" width="200" height="200"><path d="M663 361.6h51.2v440.6H663z" fill="#ffffff" p-id="1122"></path><path d="M772.3 219.5c0.5-4.5 0.8-9 0.8-13.4v-18.4c0-68.1-55.4-123.5-123.5-123.5H374.2c-68.1 0-123.5 55.4-123.5 123.5v18.4c0 4.5 0.3 9 0.8 13.4H71.2v51.2h102.5v607.8c0 44.7 36.4 81 81 81h514.1c44.7 0 81-36.4 81-81V270.7h102.6v-51.2H772.3z m-467.4-13.4v-18.4c0-38.2 31.1-69.2 69.3-69.2h275.4c38.2 0 69.3 31.1 69.3 69.2v18.4c0 4.5-0.5 9-1.4 13.4H304.8l1.3-0.3c-0.8-4.2-1.2-8.7-1.2-13.1zM798 878.5c0 16.1-13.1 29.1-29.1 29.1H254.8c-16.1 0-29.1-13.1-29.1-29.1V270.7H798v607.8z" fill="#ffffff" p-id="1123"></path><path d="M484 361.6h51.2v440.6H484zM305 361.6h51.2v440.6H305z" fill="#ffffff" p-id="1124"></path></svg>