<!-- 
    返回锚点 回收站 黄色 tangtao 
    https://www.promiselee.cn/tao
    2019-10-3 23:53:54
 -->

<svg t="1570117952268" class="icon" viewBox="0 0 1024 1024" version="1.1" xmlns="http://www.w3.org/2000/svg" p-id="1112" width="300" height="300"><path d="M514.316557 525.498007m-361.155596 149.595546a390.912 390.912 0 1 0 722.311192-299.191092 390.912 390.912 0 1 0-722.311192 299.191092Z" fill="#ffc107" p-id="1113" data-spm-anchor-id="a313x.7781069.0.i0" class="selected"></path><path d="M279.4496 642.56a30.72 30.72 0 0 1-21.76-52.48L492.544 355.2768a30.72 30.72 0 0 1 43.4688 43.4176l-234.8544 234.8544a30.72 30.72 0 0 1-21.7088 9.0112z" fill="#FFFFFF" p-id="1114"></path><path d="M749.1072 642.56a30.72 30.72 0 0 1-21.7088-9.0112L492.544 398.6944a30.72 30.72 0 1 1 43.4688-43.4176l234.8032 234.8032a30.72 30.72 0 0 1-21.7088 52.48z" fill="#FFFFFF" p-id="1115"></path></svg>