<!-- 
    export 导出列表 白色 tangtao 
    https://www.promiselee.cn/tao
    2019-9-18 10:23:03
 -->

<svg t="1568773343658" class="icon" viewBox="0 0 1024 1024" version="1.1" xmlns="http://www.w3.org/2000/svg" p-id="1450" width="200" height="200"><path d="M791.272727 139.636364h-139.636363a23.272727 23.272727 0 0 0 0 46.545454h139.636363a48.64 48.64 0 0 1 11.869091 1.629091L550.167273 442.181818a23.272727 23.272727 0 0 0 0 32.814546 23.272727 23.272727 0 0 0 16.290909 6.981818 23.272727 23.272727 0 0 0 16.523636-6.981818L836.189091 220.858182A48.64 48.64 0 0 1 837.818182 232.727273v139.636363a23.272727 23.272727 0 0 0 46.545454 0v-139.636363a93.090909 93.090909 0 0 0-93.090909-93.090909z" p-id="1451" fill="#FFFFFF"></path><path d="M861.090909 512a23.272727 23.272727 0 0 0-23.272727 23.272727v256a46.545455 46.545455 0 0 1-46.545455 46.545455H232.727273a46.545455 46.545455 0 0 1-46.545455-46.545455V232.727273a46.545455 46.545455 0 0 1 46.545455-46.545455h256a23.272727 23.272727 0 0 0 0-46.545454H232.727273a93.090909 93.090909 0 0 0-93.090909 93.090909v558.545454a93.090909 93.090909 0 0 0 93.090909 93.090909h558.545454a93.090909 93.090909 0 0 0 93.090909-93.090909V535.272727a23.272727 23.272727 0 0 0-23.272727-23.272727z" p-id="1452" fill="#FFFFFF"></path></svg>