<!-- 
    score 预测错误 亮红色 tangtao 杭州电子科技大学
    https://www.promiselee.cn/tao
    2019-9-27 18:04:27
 -->

<svg t="1569578606842" class="icon" viewBox="0 0 1024 1024" version="1.1" xmlns="http://www.w3.org/2000/svg" p-id="3300" width="200" height="200"><path d="M512 102.4c-225.28 0-409.6 184.32-409.6 409.6s184.32 409.6 409.6 409.6 409.6-184.32 409.6-409.6-184.32-409.6-409.6-409.6z m184.32 542.72c15.36 15.36 15.36 35.84 0 51.2s-35.84 15.36-51.2 0l-133.12-133.12-133.12 133.12c-15.36 15.36-35.84 15.36-51.2 0s-15.36-35.84 0-51.2l133.12-133.12-133.12-133.12c-15.36-15.36-15.36-35.84 0-51.2s35.84-15.36 51.2 0l133.12 133.12 133.12-133.12c15.36-15.36 35.84-15.36 51.2 0s15.36 35.84 0 51.2l-133.12 133.12 133.12 133.12z" p-id="3301" fill="#f44455"></path></svg>
