<!-- 
    identification 鉴定 白色 tangtao 杭州电子科技大学
    https://www.promiselee.cn/tao
    2019-9-17 21:17:42
 -->

<svg t="1568725706904" class="icon" viewBox="0 0 1024 1024" version="1.1" xmlns="http://www.w3.org/2000/svg" p-id="4230" width="200" height="200"><path d="M258.048 867.84c-25.088 0-49.152-9.728-67.072-27.648-17.92-17.92-27.648-41.472-27.648-67.072 0-52.224 42.496-94.72 94.72-94.72 16.384 0 29.184 13.312 29.184 29.184s-13.312 29.184-29.184 29.184c-19.968 0-35.84 16.384-35.84 35.84 0 9.728 3.584 18.432 10.752 25.6 6.656 6.656 15.872 10.752 25.6 10.752 0 0 0 0 0 0l0 0c16.384 0 29.184 13.312 29.184 29.184S274.432 867.84 258.048 867.84C258.048 867.84 258.048 867.84 258.048 867.84z" p-id="4231" fill="#FFFFFF"></path><path d="M674.816 867.84 258.048 867.84c-16.384 0-29.184-13.312-29.184-29.184s13.312-29.184 29.184-29.184l416.768 0c16.384 0 29.184 13.312 29.184 29.184S690.688 867.84 674.816 867.84z" p-id="4232" fill="#FFFFFF"></path><path d="M797.696 659.968c-16.384 0-29.184-13.312-29.184-29.184L768.512 224.256 257.536 224.256c-19.456 0-35.328 15.872-35.328 35.328l0 95.744c0 16.384-13.312 29.184-29.184 29.184s-29.184-13.312-29.184-29.184L163.84 259.584c0-51.712 41.984-93.696 93.696-93.696l540.16 0c16.384 0 29.184 13.312 29.184 29.184l0 436.224C826.88 647.168 814.08 659.968 797.696 659.968z" p-id="4233" fill="#FFFFFF"></path><path d="M338.432 737.28 258.048 737.28c-16.384 0-29.184-13.312-29.184-29.184s13.312-29.184 29.184-29.184l80.384 0c16.384 0 29.184 13.312 29.184 29.184S354.816 737.28 338.432 737.28z" p-id="4234" fill="#FFFFFF"></path><path d="M193.024 799.232c-16.384 0-29.184-13.312-29.184-29.184L163.84 354.816c0-16.384 13.312-29.184 29.184-29.184s29.184 13.312 29.184 29.184l0 415.232C222.208 786.432 208.896 799.232 193.024 799.232z" p-id="4235" fill="#FFFFFF"></path><path d="M285.184 406.016c-16.384 0-29.184-13.312-29.184-29.184l0-168.96c0-16.384 13.312-29.184 29.184-29.184s29.184 13.312 29.184 29.184l0 168.96C314.368 392.704 301.568 406.016 285.184 406.016z" p-id="4236" fill="#FFFFFF"></path><path d="M410.112 406.016c-16.384 0-29.184-13.312-29.184-29.184l0-168.96c0-16.384 13.312-29.184 29.184-29.184 16.384 0 29.184 13.312 29.184 29.184l0 168.96C439.296 392.704 425.984 406.016 410.112 406.016z" p-id="4237" fill="#FFFFFF"></path><path d="M285.184 406.016c-8.704 0-17.92-4.096-23.552-11.776-9.728-12.8-7.168-31.232 5.632-40.96l62.464-47.104c12.8-9.728 31.232-7.168 40.96 5.632 9.728 12.8 7.168 31.232-5.632 40.96l-62.464 47.104C297.472 403.968 291.328 406.016 285.184 406.016z" p-id="4238" fill="#FFFFFF"></path><path d="M410.112 406.016c-6.144 0-12.288-2.048-17.408-6.144l-62.464-47.104c-12.8-9.728-15.36-28.16-5.632-40.96 9.728-12.8 28.16-15.36 40.96-5.632L427.52 353.28c12.8 9.728 15.36 28.16 5.632 40.96C427.52 401.92 418.816 406.016 410.112 406.016z" p-id="4239" fill="#FFFFFF"></path><path d="M551.936 736.768c-50.176 0-97.28-19.456-132.608-54.784-73.216-73.216-73.216-192 0-264.704 73.216-73.216 192-73.216 264.704 0l0 0c73.216 73.216 73.216 192 0 264.704C649.216 717.312 602.112 736.768 551.936 736.768zM551.936 420.864c-32.768 0-66.048 12.288-91.136 37.376-50.176 50.176-50.176 131.584 0 181.76 50.176 50.176 131.584 50.176 181.76 0 50.176-50.176 50.176-131.584 0-181.76C617.984 433.664 584.704 420.864 551.936 420.864z" p-id="4240" fill="#FFFFFF"></path><path d="M668.16 663.552" p-id="4241" fill="#FFFFFF"></path><path d="M830.976 875.008c-7.68 0-14.848-3.072-20.48-8.704l-162.816-163.328c-11.264-11.264-11.264-30.208 0-41.472 11.264-11.264 30.208-11.264 41.472 0l162.816 163.328c11.264 11.264 11.264 30.208 0 41.472C846.336 871.936 838.656 875.008 830.976 875.008z" p-id="4242" fill="#FFFFFF"></path></svg>