<!-- 
    report tangtao 
    https://www.promiselee.cn/tao
    2019-9-17 20:06:55 
 -->
<svg t="1568721807439" class="icon" viewBox="0 0 1024 1024" version="1.1" xmlns="http://www.w3.org/2000/svg" p-id="2162" width="200" height="200"><path d="M591.5 447.4l141.4-143.3 57.6 58.4 65.2-264.3-260.6 66.1 72.7 73.7-141.5 143.3L396 249.2 135.3 513.5l65.2 66.1L396 381.3l130.3 132.1 65.2-66z m251.8 60.4h-92.1c-25.5 0-46.1 20.9-46.1 46.7v327c0 25.8 20.6 46.7 46.1 46.7h92.1c25.4 0 46.1-20.9 46.1-46.7v-327c-0.1-25.8-20.7-46.7-46.1-46.7z m-553 186.9h-92.2c-25.4 0-46.1 20.9-46.1 46.7v140.1c0 25.8 20.6 46.7 46.1 46.7h92.2c25.4 0 46.1-20.9 46.1-46.7V741.4c0-25.8-20.6-46.7-46.1-46.7z m276.5-93.5h-92.2c-25.4 0-46.1 20.9-46.1 46.7v233.6c0 25.8 20.6 46.7 46.1 46.7h92.2c25.5 0 46.1-20.9 46.1-46.7V647.9c0-25.8-20.7-46.7-46.1-46.7z" p-id="2163"></path></svg>