
<!-- 
    score 预测正确 绿色 tangtao 杭州电子科技大学
    https://www.promiselee.cn/tao
    2019-9-27 16:58:59
 -->
<svg t="1569574475083" class="icon" viewBox="0 0 1024 1024" version="1.1" xmlns="http://www.w3.org/2000/svg" p-id="2480" width="200" height="200"><path d="M512.330936 956.628798c-245.847116 0-445.150388-199.711995-445.150388-446.074961 0-246.35757 199.303272-446.074961 445.150388-446.074961 245.851513 0 445.150388 199.717192 445.150388 446.074961C957.481324 756.915803 758.183248 956.628798 512.330936 956.628798zM762.171144 379.680768l-31.226828-30.636229c-17.249905-16.918929-45.213545-16.918929-62.459852 0L449.871083 563.493943l-93.690278-91.908886c-17.249905-16.918929-45.213545-16.918929-62.459852 0l-31.230426 30.636229c-17.249905 16.918929-17.249905 44.352729 0 61.272657l124.917106 122.53632c0 0.003598 0 0.003598 0 0.003598l31.230426 30.636229c17.249905 16.918929 45.213545 16.918929 62.46345 0l281.068036-275.718663c17.250704-16.923326 17.250704-44.35173 0.000799-61.271658L762.171144 379.680768z" p-id="2481" fill="#5fc27e"></path></svg>