<!-- 细节图标 2019-8-16 00:21:33 -->

<svg t="1565886231942" class="icon" viewBox="0 0 1024 1024" version="1.1" xmlns="http://www.w3.org/2000/svg" p-id="2233" width="300" height="300"><path d="M933.647059 0 90.352941 0C57.103059 0 30.117647 26.985412 30.117647 60.235294l0 903.529412c0 33.28 26.985412 60.235294 60.235294 60.235294l843.294118 0c33.28 0 60.235294-26.955294 60.235294-60.235294L993.882353 60.235294C993.882353 26.985412 966.927059 0 933.647059 0zM933.647059 963.764706 90.352941 963.764706 90.352941 60.235294l843.294118 0L933.647059 963.764706z" p-id="2234" fill="#ffffff"></path><path d="M240.941176 331.294118l542.117647 0c16.655059 0 30.117647-13.462588 30.117647-30.117647 0-16.624941-13.462588-30.117647-30.117647-30.117647L240.941176 271.058824c-16.624941 0-30.117647 13.492706-30.117647 30.117647C210.823529 317.831529 224.316235 331.294118 240.941176 331.294118zM783.058824 481.882353 240.941176 481.882353c-16.624941 0-30.117647 13.492706-30.117647 30.117647 0 16.655059 13.492706 30.117647 30.117647 30.117647l542.117647 0c16.655059 0 30.117647-13.462588 30.117647-30.117647C813.176471 495.375059 799.713882 481.882353 783.058824 481.882353zM783.058824 692.705882 240.941176 692.705882c-16.624941 0-30.117647 13.462588-30.117647 30.117647s13.492706 30.117647 30.117647 30.117647l542.117647 0c16.655059 0 30.117647-13.462588 30.117647-30.117647S799.713882 692.705882 783.058824 692.705882z" p-id="2235" fill="#ffffff"></path></svg>