<!-- 公开 公开标准库 2019-8-30 12:41:57 -->
<svg t="1567140087244" class="icon" viewBox="0 0 1024 1024" version="1.1" xmlns="http://www.w3.org/2000/svg" p-id="1486" width="200" height="200"><path d="M511.99 521.34m-121.14 0a121.14 121.14 0 1 0 242.28 0 121.14 121.14 0 1 0-242.28 0Z" fill="#ffffff" p-id="1487"></path><path d="M512 874.2c-196.85 0-364.66-161.45-447.19-257.68-47.27-55.13-47.27-135.19 0-190.34 82.53-96.26 250.35-257.7 447.19-257.7 196.82 0 364.64 161.45 447.17 257.68 47.29 55.17 47.29 135.23 0 190.36a1092.15 1092.15 0 0 1-38.77 42.89c-13.83 14.51-36.86 14.83-50.88 0.5-13.15-13.45-13.54-34.95-0.55-48.56 12.34-12.94 24.49-26.36 36.32-40.14 24.53-28.57 25.12-70.45 0.62-99.04-74.59-87.04-225.12-233.3-393.91-233.3-168.81 0-319.33 146.26-393.93 233.31a75.414 75.414 0 0 0 0 98.32c74.6 87.05 225.12 233.31 393.93 233.31 44.93 0 87.69-16.36 132.94-33.71 15.99-6.12 32.03-12.26 48.23-17.71 55.86-18.87 104.85-0.69 136.05 17.8 19.8 11.74 23.44 38.8 7.21 55.13-11.47 11.54-29.17 13.49-43.16 5.18-18.52-11-46.89-21.78-77.61-11.43-15.31 5.18-30.43 10.98-45.57 16.77C620.86 854.7 569.95 874.2 512 874.2z" fill="#ffffff" p-id="1488"></path></svg>